# AST/ASF file generated using VICON BodyLanguage
# -----------------------------------------------
:version 1.10
:name VICON
:units
  mass 1.0
  length 0.45
  angle deg
:documentation
   .ast/.asf automatically generated from VICON data using
   VICON BodyBuilder and BodyLanguage model FoxedUp or BRILLIANT.MOD
:root
   order TX TY TZ RX RY RZ
   axis XYZ
   position 0 0 0  
   orientation 0 0 0 
:bonedata
  begin
     id 1 
     name lhipjoint
     direction 0.630082 -0.636569 0.44472 
     length 2.82754 
     axis 0 0 0  XYZ
  end
  begin
     id 2 
     name lfemur
     direction 0.34202 -0.939693 0  
     length 7.26371  
     axis 0 0 20  XYZ
    dof rx ry rz
    limits (-160.0 20.0)
           (-70.0 70.0)
           (-60.0 70.0)
  end
  begin
     id 3 
     name ltibia
     direction 0.34202 -0.939693 0   
     length 7.88616   
     axis 0 0 20   XYZ
    dof rx
    limits (-10.0 170.0)
  end
  begin
     id 4 
     name lfoot
     direction 0.0603448 -0.165796 0.984312   
     length 1.77861   
     axis -90 7.62852e-016 20   XYZ
    dof rx rz
    limits (-45.0 90.0)
           (-70.0 20.0)
  end
  begin
     id 5 
     name ltoes
     direction 1.53577e-011 -4.21876e-011 1   
     length 0.902235   
     axis -90 7.62852e-016 20   XYZ
    dof rx
    limits (-90.0 20.0)
  end
  begin
     id 6 
     name rhipjoint
     direction -0.656778 -0.61817 0.431866   
     length 2.9117  
     axis 0 0 0  XYZ 
  end
  begin
     id 7 
     name rfemur
     direction -0.34202 -0.939693 0   
     length 6.81603   
     axis 0 0 -20   XYZ
    dof rx ry rz
    limits (-160.0 20.0)
           (-70.0 70.0)
           (-70.0 60.0)
  end
  begin
     id 8 
     name rtibia
     direction -0.34202 -0.939693 0   
     length 8.05997   
     axis 0 0 -20   XYZ
    dof rx
    limits (-10.0 170.0)
 end
 begin
     id 9 
     name rfoot
     direction -0.0862404 -0.236944 0.967688   
     length 1.84899  
     axis -90 -7.62852e-016 -20   XYZ
    dof rx rz
    limits (-45.0 90.0)
           (-20.0 70.0)
  end
  begin
     id 10 
     name rtoes
     direction -1.53561e-011 -4.21798e-011 1   
     length 0.931579   
     axis -90 -7.62852e-016 -20   XYZ
    dof rx
    limits (-90.0 20.0)
  end
  begin
     id 11 
     name lowerback
     direction -0.0110203 0.991769 -0.127564   
     length 2.05686   
     axis 0 0 0   XYZ
    dof rx ry rz
    limits (-20.0 45.0)
           (-30.0 30.0)
           (-30.0 30.0)
  end
  begin
     id 12 
     name upperback
     direction 0.0109719 0.99993 -0.00432479   
     length 2.06234   
     axis 0 0 0   XYZ
    dof rx ry rz
    limits (-20.0 45.0)
           (-30.0 30.0)
           (-30.0 30.0)
  end
  begin
     id 13 
     name thorax
     direction 0.0173308 0.998351 0.0547306   
     length 2.09856   
     axis 0 0 0   XYZ
    dof rx ry rz
    limits (-20.0 45.0)
           (-30.0 30.0)
           (-30.0 30.0)
  end
  begin
     id 14 
     name lowerneck
     direction -0.0311736 0.989033 0.144366   
     length 1.98151   
     axis 0 0 0   XYZ
    dof rx ry rz
    limits (-20.0 45.0)
           (-30.0 30.0)
           (-30.0 30.0)
  end
  begin
     id 15 
     name upperneck
     direction 0.0421057 0.975772 -0.214698   
     length 2.01457   
     axis 0 0 0   XYZ
    dof rx ry rz
    limits (-20.0 45.0)
           (-30.0 30.0)
           (-30.0 30.0)
  end
  begin
     id 16
     name head
     direction 0.0136911 0.995958 -0.0887718  
     length 2.03562  
     axis 0 0 0   XYZ
    dof rx ry rz
    limits (-20.0 45.0)
           (-30.0 30.0)
           (-30.0 30.0)
  end
  begin
     id 17 
     name lclavicle
     direction 0.915335 0.396201 0.0720134  
     length 4.16217  
     axis 0 0 0   XYZ
    dof ry rz
    limits (-20.0 10.0)
           (0.0 20.0)
  end
  begin
     id 18 
     name lhumerus
     direction 1 -4.48965e-011 6.383e-018   
     length 4.93042   
     axis -180 -30 -90   XYZ
    dof rx ry rz
    limits (-60.0 90.0)
           (-90.0 90.0)
           (-90.0 90.0)
  end
  begin
     id 19
     name lradius
     direction 1 -4.48972e-011 8.8689e-027   
     length 3.68177   
     axis -180 -30 -90   XYZ
    dof rx
    limits (-10.0 170.0)
  end
  begin
     id 20
     name lwrist
     direction 1 -4.48953e-011 1.17971e-026   
     length 1.84089   
     axis -7.69454e-015 90 90   XYZ
    dof ry
    limits (-180.0 0.0)
 end
  begin
     id 21 
     name lhand
     direction 1 -4.49027e-011 2.35802e-026   
     length 0.721479   
     axis -1.50533e-014 90 90   XYZ
    dof rx rz
    limits (-90.0 90.0)
           (-45.0 45.0)
  end
  begin
     id 22 
     name lfingers
     direction 1 -4.48915e-011 4.72027e-026   
     length 0.581675   
     axis -3.01059e-014 90 90   XYZ
    dof rx
    limits (0.0 90.0)
  end
  begin
     id 23
     name lthumb
     direction 0.707107 -6.34948e-011 0.707107   
     length 0.835172   
     axis -90 45 -5.12164e-014   XYZ
    dof rx rz
    limits (-45.0 45.0)
           (-45.0 45.0)
  end
  begin
     id 24 
     name rclavicle
     direction -0.882781 0.469197 0.0234974   
     length 3.95647  
     axis 0 0 0   XYZ 
    dof ry rz
    limits (-10.0 20.0)
           (-20.0 0.0)
  end
  begin
     id 25 
     name rhumerus
     direction -1 -4.48965e-011 -1.54906e-018  
     length 5.07905   
     axis -180 30 90   XYZ
    dof rx ry rz
    limits (-90.0 60.0)
           (-90.0 90.0)
           (-90.0 90.0)
  end
  begin
     id 26 
     name rradius
     direction -1 -4.48972e-011 5.47489e-027   
     length 3.54394   
     axis -180 30 90   XYZ
    dof rx
    limits (-10.0 170.0)
  end
  begin
     id 27 
     name rwrist
     direction -1 -4.48955e-011 1.17969e-026   
     length 1.77197   
     axis -7.69454e-015 -90 -90   XYZ
    dof ry
    limits (-180.0 0.0)
  end
  begin
     id 28
     name rhand
     direction -1 -4.48982e-011 2.35888e-026   
     length 0.681156   
     axis -1.50533e-014 -90 -90   XYZ
    dof rx rz
    limits (-90.0 90.0)
           (-45.0 45.0)
  end
  begin
     id 29
     name rfingers
     direction -1 -4.48955e-011 4.71877e-026   
     length 0.549165   
     axis -3.01059e-014 -90 -90   XYZ
    dof rx
    limits (0.0 90.0)
  end
  begin
     id 30
     name rthumb
     direction -0.707107 -6.3491e-011 0.707107   
     length 0.788495   
     axis -90 -45 5.12164e-014   XYZ
    dof rx rz
    limits (-45.0 45.0)
           (-45.0 45.0)
  end
:hierarchy
  begin
    root lhipjoint rhipjoint lowerback
    lhipjoint lfemur
    lfemur ltibia
    ltibia lfoot
    lfoot ltoes
    rhipjoint rfemur
    rfemur rtibia
    rtibia rfoot
    rfoot rtoes
    lowerback upperback
    upperback thorax
    thorax lowerneck lclavicle rclavicle
    lowerneck upperneck
    upperneck head
    lclavicle lhumerus
    lhumerus lradius
    lradius lwrist
    lwrist lhand lthumb
    lhand lfingers
    rclavicle rhumerus
    rhumerus rradius
    rradius rwrist
    rwrist rhand rthumb
    rhand rfingers
  end

#!OML:ASF H:\Bending\Project 1\Capture day 1\Session 1\Subject.ASF
:FULLY-SPECIFIED
:DEGREES
112
root -12.3667 17.4553 -16.7868 -38.7911 96.2845 -73.0816
lowerback 49.2397 -2.18455 -0.950981
upperback 11.0022 -1.10441 -0.567594
thorax -8.14497 0.262969 0.189784
lowerneck -17.994 -4.49974 -6.53324
upperneck 1.10617 -5.09681 8.82338
head 3.59745 -2.07547 3.36547
rclavicle -1.19271e-015 1.51076e-014
rhumerus 43.2123 7.86642 -73.827
rradius 32.4392
rwrist -2.14407
rhand -20.1176 -26.4379
rfingers 7.12502
rthumb 6.22632 -56.3264
lclavicle -1.19271e-015 1.51076e-014
lhumerus 47.7854 -22.8068 72.3104
lradius 35.9955
lwrist 43.3204
lhand -32.498 15.2014
lfingers 7.12502
lthumb -5.72958 45.1039
rfemur -64.5196 -24.1546 18.5468
rtibia 43.2488
rfoot -12.3947 -5.22823
rtoes -9.49078
lfemur -63.715 0.183879 -18.4151
ltibia 41.32
lfoot -9.84649 -4.30978
ltoes -12.2664
113
root -12.3638 17.4757 -16.7869 -38.3706 96.288 -71.8064
lowerback 48.9607 -2.26554 -0.880547
upperback 11.0111 -1.16325 -0.511307
thorax -8.09415 0.233884 0.242468
lowerneck -18.2326 -4.5126 -6.70211
upperneck 1.26882 -5.08875 9.06452
head 3.69606 -2.05068 3.46599
rclavicle -7.23576e-014 -3.07122e-014
rhumerus 41.4039 9.02323 -73.7863
rradius 33.8639
rwrist -2.67015
rhand -20.8336 -26.4156
rfingers 7.12502
rthumb 5.53498 -56.3234
lclavicle -7.23576e-014 -3.07122e-014
lhumerus 45.3521 -23.4181 72.9332
lradius 37.677
lwrist 43.6943
lhand -33.6599 15.3145
lfingers 7.12502
lthumb -6.85128 45.1836
rfemur -63.0323 -23.9178 17.9481
rtibia 42.8333
rfoot -12.3421 -5.6407
rtoes -9.27468
lfemur -62.5369 0.0899754 -18.3477
ltibia 40.9382
lfoot -9.78259 -4.29519
ltoes -12.6178
114
root -12.3567 17.5038 -16.7881 -37.4586 96.261 -69.992
lowerback 47.7558 -2.40836 -0.734926
upperback 11.9788 -1.24123 -0.49932
thorax -8.09522 0.192113 0.270283
lowerneck -18.5035 -4.48466 -6.8529
upperneck 1.40018 -5.01959 9.25095
head 3.78268 -1.99675 3.5526
rclavicle 6.87795e-014 9.88954e-015
rhumerus 39.5421 10.2518 -73.8863
rradius 35.3096
rwrist -3.12295
rhand -21.5512 -26.3296
rfingers 7.12502
rthumb 4.84215 -56.2543
lclavicle 6.87795e-014 9.88954e-015
lhumerus 42.763 -24.0049 73.4555
lradius 39.4762
lwrist 44.186
lhand -34.6009 15.4085
lfingers 7.12502
lthumb -7.7596 45.2461
rfemur -61.3419 -23.6253 17.358
rtibia 42.235
rfoot -12.2477 -6.083
rtoes -9.06484
lfemur -61.2235 -0.0406199 -18.1953
ltibia 40.4279
lfoot -9.72362 -4.23036
ltoes -13.232
115
root -12.3457 17.5386 -16.7905 -36.1373 96.2186 -67.74
lowerback 47.4898 -2.56697 -0.553751
upperback 11.9474 -1.34928 -0.441305
thorax -8.07117 0.141098 0.287722
lowerneck -18.825 -4.4121 -6.99263
upperneck 1.53525 -4.88312 9.37371
head 3.8698 -1.9107 3.62406
rclavicle 4.73108e-014 4.58199e-014
rhumerus 37.4986 11.5961 -73.9624
rradius 36.9671
rwrist -3.72018
rhand -22.2423 -26.322
rfingers 7.12502
rthumb 4.17476 -56.2609
lclavicle 4.73108e-014 4.58199e-014
lhumerus 40.0852 -24.5929 73.8519
lradius 41.2886
lwrist 44.7114
lhand -35.2586 15.4926
lfingers 7.12502
lthumb -8.39434 45.3058
rfemur -59.4797 -23.271 16.7702
rtibia 41.4555
rfoot -12.1117 -6.54703
rtoes -8.91703
lfemur -59.8013 -0.206973 -17.9817
ltibia 39.7938
lfoot -9.66074 -4.12719
ltoes -13.9491
116
root -12.3315 17.5781 -16.7942 -34.5682 96.1801 -65.2332
lowerback 47.1777 -2.73659 -0.340845
upperback 11.9028 -1.46091 -0.371731
thorax -8.05109 0.0866554 0.302578
lowerneck -19.1925 -4.30322 -7.11628
upperneck 1.70405 -4.69437 9.43218
head 3.96686 -1.80047 3.67806
rclavicle -4.6118e-014 -2.13197e-014
rhumerus 35.3694 13.0124 -74.056
rradius 38.7238
rwrist -4.45937
rhand -22.9137 -26.4844
rfingers 7.12502
rthumb 3.52645 -56.435
lclavicle -4.6118e-014 -2.13197e-014
lhumerus 37.3728 -25.228 74.148
lradius 43.0345
lwrist 45.2256
lhand -35.6235 15.5889
lfingers 7.12502
lthumb -8.74653 45.3877
rfemur -57.4942 -22.8494 16.1711
rtibia 40.5189
rfoot -11.9401 -7.03734
rtoes -8.84012
lfemur -58.3045 -0.399446 -17.7454
ltibia 39.0516
lfoot -9.57931 -4.01452
ltoes -14.5481
117
root -12.315 17.6197 -16.7992 -32.9659 96.1562 -62.7063
lowerback 46.782 -2.90049 -0.113963
upperback 11.8438 -1.56779 -0.293129
thorax -8.02602 0.0316385 0.317154
lowerneck -19.5954 -4.17049 -7.21895
upperneck 1.92437 -4.47461 9.43733
head 4.07988 -1.67672 3.71541
rclavicle 9.93923e-015 2.85256e-014
rhumerus 33.0898 14.4632 -74.1515
rradius 40.6273
rwrist -5.34646
rhand -23.5766 -26.821
rfingers 7.12502
rthumb 2.88623 -56.7812
lclavicle 9.93923e-015 2.85256e-014
lhumerus 34.648 -25.9308 74.4085
lradius 44.6705
lwrist 45.7314
lhand -35.7409 15.7123
lfingers 7.12502
lthumb -8.85974 45.5063
rfemur -55.4457 -22.3601 15.5576
rtibia 39.4648
rfoot -11.743 -7.56305
rtoes -8.81908
lfemur -56.7698 -0.597309 -17.5232
ltibia 38.2274
lfoot -9.46772 -3.92793
ltoes -14.8438
118
root -12.2968 17.661 -16.8051 -31.5249 96.1406 -60.3683
lowerback 46.2712 -3.03611 0.10905
upperback 11.7678 -1.65494 -0.2069
thorax -7.99 -0.0182062 0.332101
lowerneck -20.0076 -4.03237 -7.29121
upperneck 2.18764 -4.25348 9.40015
head 4.20519 -1.55472 3.73539
rclavicle -4.77083e-015 -7.20594e-015
rhumerus 30.6563 15.8702 -74.2983
rradius 42.6098
rwrist -6.24577
rhand -24.2237 -27.2196
rfingers 7.12502
rthumb 2.26135 -57.1873
lclavicle -4.77083e-015 -7.20594e-015
lhumerus 31.9019 -26.7072 74.7241
lradius 46.1884
lwrist 46.2573
lhand -35.69 15.8594
lfingers 7.12502
lthumb -8.81071 45.6555
rfemur -53.3949 -21.8115 14.9476
rtibia 38.3358
rfoot -11.531 -8.12656
rtoes -8.84787
lfemur -55.2295 -0.775643 -17.3317
ltibia 37.3544
lfoot -9.32642 -3.89039
ltoes -14.7661
119
root -12.2778 17.7003 -16.8113 -30.3415 96.1118 -58.3204
lowerback 45.6326 -3.11994 0.312074
upperback 11.6689 -1.70406 -0.110004
thorax -7.94384 -0.0555352 0.350752
lowerneck -20.4005 -3.90786 -7.32858
upperneck 2.46806 -4.05912 9.33077
head 4.33342 -1.44898 3.7377
rclavicle 5.08889e-014 -4.87022e-015
rhumerus 28.1493 17.1519 -74.5619
rradius 44.4918
rwrist -6.95638
rhand -24.8085 -27.4912
rfingers 7.12502
rthumb 1.69655 -57.4642
lclavicle 5.08889e-014 -4.87022e-015
lhumerus 29.0982 -27.5411 75.1828
lradius 47.6079
lwrist 46.8196
lhand -35.5558 16.0076
lfingers 7.12502
lthumb -8.68111 45.8091
rfemur -51.3847 -21.2187 14.3772
rtibia 37.1639
rfoot -11.3108 -8.71905
rtoes -8.93524
lfemur -53.7041 -0.920247 -17.1567
ltibia 36.4667
lfoot -9.17308 -3.89262
ltoes -14.4007
120
root -12.2583 17.7373 -16.8172 -29.3852 96.0416 -56.5248
lowerback 44.8764 -3.13785 0.482337
upperback 11.5424 -1.70339 0.00384096
thorax -7.89241 -0.0754119 0.381499
lowerneck -20.7608 -3.80978 -7.3394
upperneck 2.74079 -3.90708 9.24099
head 4.45693 -1.367 3.72563
rclavicle 3.1408e-014 -2.65378e-014
rhumerus 25.5589 18.283 -74.9325
rradius 46.2233
rwrist -7.36102
rhand -25.0834 -27.572
rfingers 7.12502
rthumb 1.43104 -57.5469
lclavicle 3.1408e-014 -2.65378e-014
lhumerus 26.1894 -28.3881 75.8376
lradius 48.9699
lwrist 47.3978
lhand -35.401 16.1235
lfingers 7.12502
lthumb -8.53179 45.9311
rfemur -49.4262 -20.5946 13.884
rtibia 35.9594
rfoot -11.083 -9.32486
rtoes -9.08504
lfemur -52.1975 -1.04136 -16.9571
ltibia 35.5923
lfoot -9.04129 -3.8851
ltoes -13.9595
